<svg width="587" height="822" xmlns="http://www.w3.org/2000/svg" xmlns:xlink="http://www.w3.org/1999/xlink"><defs><linearGradient x1="90.51%" y1="47.586%" x2="0%" y2="56.272%" id="a"><stop stop-color="#FE9B7C" offset="0%"/><stop stop-color="#D06868" offset="100%"/></linearGradient><linearGradient x1="36.295%" y1="101.288%" x2="65.515%" y2="13.528%" id="e"><stop stop-color="#4C416C" offset="0%"/><stop stop-color="#4F7995" offset="100%"/></linearGradient><linearGradient x1="59.996%" y1="-2.451%" x2="33.455%" y2="98.382%" id="k"><stop stop-color="#5190A5" offset="0%"/><stop stop-color="#4E6586" offset="100%"/></linearGradient><linearGradient x1="78.616%" y1="37.863%" x2="3.475%" y2="94.738%" id="m"><stop stop-color="#EFE8CD" offset="0%"/><stop stop-color="#D3CAAF" offset="100%"/></linearGradient><path id="b" d="M137 .3L36 .4l-36 30 110-.1z"/><path d="M424.273 94.43c-37.121-20.592-26.169-75.983-26.169-75.983s1.991-14.001-8.01-15.996C380.093.458 377.091-2.54 378.102 15.459c1.012 18-9.836 68.007 20.18 93.988 21.927 18.979 53.01 14.965 75.029 44.952 21.923 29.854-8.408 71.831-15.072 75.01-20.994 10.013-19.992 14.012-36.99 16.023-16.999 2.011-61.882-2.961-86.876 6.055-24.995 9.016-18.109 18.012-42.099 33.027-23.99 15.016-63.978 35.041-80.966 54.052-6.629 7.419-11.117 16.053-13.719 24.48-16.107 4.851-51.915 9.686-80.129 25.579-16.531 9.313-60.061 39.274-79.957 68.052-17.983 26.011-26.963 57.017-31.946 84.02C2.472 557.414.588 589.7.596 609.7c.018 19.698 2.86 35.4 6.326 54.738 1.543 8.61 2.978 23.568 2.978 33.202 0 9.634-2.978 11.975-2.978 18.678 0 6.703 2.084 8.785 3.687 10.416 1.603 1.63 0-5.05 0-6.827 0-1.777 2.374-6.482 3.099-4.96.725 1.523-.11.121-.752 7.78-.643 7.658 5.69 22.114 5.69 15.556 0-6.557 0-15.556 1.51-19.48 1.51-3.922 1.592-.918 1.592 0 0 .92-.397 3.1.579 2.652.976-.449 2.705-2.232.976-11.143-1.73-8.911-2.755-8.911-3.364-12.672-2.08-12.832-2.056-19.28-3.3-27.95-2.009-13.999-3.037-57.998-2.046-72.999 1.515-22.95 7.397-25.611 9.981-30.006 4.115-7.003 8.184 42.333 26.054 85.983 15.144 36.99 36.024 36.977 44.029 44.972 8.005 7.995-6.972 43.005-.956 68.001 5.401 22.445-1.977 37.001.027 43 2.004 5.998 26.008 12.975 44.008 12.975 18-.015 39.997-5.029 39.992-13.029-.014-21-8.011-16.995-10.02-29.993-2.007-12.999 18.7-32.05 20.97-48.014 3.982-28.003-.021-34-6.035-54.996-.383-1.336-3.017-25.998-3.017-25.998s33.004 4.979 54.994-10.035c36.376-24.836 49.958-66.032 49.958-66.032s14.943 16.589 24.015 23.985c13.027 10.62 18.987 11.647 26.009 13.983 9.002 2.995 32.886 8.979 32.886 8.979s-11.871 14.008-18.868 19.012c-4.948 3.539-19.11 15.013-16.107 21.011 3.004 5.998 12.838 22.252 23.019 28.985 18.128 11.988 33.13 15.978 38.13 14.976 4.999-1.003 10.858-34.007 17.854-40.012 6.996-6.004 20.104-26.013 19.097-36.012-.986-9.799-3.031-47.998-28.039-61.982-13.578-7.592-30.487-11.897-37.025-37.977-6.015-23.996-44.025-39.972-44.025-39.972 12.046-17.232 32.234-39.646 37.609-45.539 5.843 2.9 11.248 4.781 17.244 4.504 10.887-.501 7.561-12.505 1.302-28.985l1.802 2.983s19.39-11.806 25.984-25.016c6.991-14.004 24.971-46.016 39.968-51.026 17.308-5.781 47.986-22.03 44.982-28.028-4.215-8.418-31.006-8.98-31.006-8.98s34.239-12.873 35.99-16.023c13.939-25.085 33.574-71.901 21.92-125.015-14.04-63.99-75.04-62.952-93.046-72.94z" id="d"/><path d="M37.504 96.137c-17.984 26.011-26.964 57.016-31.947 84.02C2.472 196.875.589 229.16.599 249.16c.015 19.697 2.575 41.657 6.04 60.996 5.019 27.997 11.039 59.994 15.039 58.991 1.939-.487-.801-30.467-5.039-59.997-2.008-13.999-3.037-57.998-2.046-72.999 1.515-22.95 7.397-25.61 9.981-30.006 4.115-7.003 8.184 42.333 26.055 85.984 15.143 36.99 36.023 36.976 44.029 44.971 8.004 7.995-6.974 43.005-.958 68.001 5.403 22.445-1.976 37.001.028 42.999 2.003 6 26.008 12.984 44.008 12.973 18-.012 39.997-5.025 39.992-13.026-.014-21-8.011-16.995-10.019-29.993-2.009-12.999 18.699-32.05 20.969-48.013 3.982-28.004-.022-34-6.035-54.997-.383-1.336-3.016-25.998-3.016-25.998s33.003 4.979 54.993-10.035c36.375-24.836 49.958-66.032 49.958-66.032s14.943 16.589 24.015 23.985c13.027 10.62 18.986 11.647 26.009 13.983 9.002 2.995 32.886 8.979 32.886 8.979s-11.871 14.008-18.868 19.012c-4.948 3.539-19.11 15.012-16.107 21.011 3.004 5.997 12.837 22.251 23.019 28.985 18.127 11.988 33.13 15.979 38.13 14.975 4.998-1.002 10.858-34.006 17.854-40.011 6.996-6.004 20.103-26.013 19.097-36.012-.986-9.799-3.031-47.998-28.039-61.983-13.579-7.591-30.487-11.896-37.025-37.975-6.015-23.997-44.025-39.973-44.025-39.973 13.987-20.009 38.97-47.025 38.97-47.025L202.943.531c-11.726 5.731-53.494 9.534-85.483 27.554-16.531 9.313-60.061 39.274-79.956 68.052z" id="g"/><path d="M204.283 108.907c21.926 18.979 53.009 14.966 75.028 44.952 21.922 29.854-8.408 71.83-15.072 75.01-20.994 10.013-19.991 14.013-36.99 16.023-5.66.67-14.412.565-24.491.461-20.192-.21-45.714-.419-62.385 5.594-24.994 9.017-18.108 18.012-42.099 33.027-23.99 15.015-63.978 35.041-80.966 54.052C.32 357.037-2.663 384.039 4.345 395.034c7.006 10.996 28.014 22.982 85.015 23.946 57 .963 71.019 28.954 93.017 27.941 10.886-.502 7.563-12.504 1.304-28.983l1.801 2.981s19.388-11.806 25.983-25.017c6.992-14.005 24.971-46.016 39.968-51.026 17.308-5.781 47.986-22.03 44.982-28.028-4.216-8.418-31.006-8.98-31.006-8.98s34.239-12.873 35.99-16.024c13.939-25.084 33.574-71.901 21.92-125.013-14.041-63.991-75.04-62.953-93.046-72.941-37.122-20.592-26.169-75.983-26.169-75.983s1.991-14.001-8.01-15.996c-3.501-.698-6.145-1.519-8.059-1.519-3.553 0-4.59 2.828-3.933 14.528 1.011 17.999-9.836 68.006 20.181 93.987z" id="j"/><radialGradient cx="41.057%" cy="27.737%" fx="41.057%" fy="27.737%" r="60.073%" gradientTransform="matrix(0 1 -.67457 0 .598 -.133)" id="c"><stop stop-opacity=".5" offset="0%"/><stop stop-opacity="0" offset="100%"/></radialGradient><filter x="-21.1%" y="-15.4%" width="142.2%" height="130.9%" filterUnits="objectBoundingBox" id="i"><feOffset dy="2" in="SourceAlpha" result="shadowOffsetOuter1"/><feGaussianBlur stdDeviation="17" in="shadowOffsetOuter1" result="shadowBlurOuter1"/><feColorMatrix values="0 0 0 0 0 0 0 0 0 0 0 0 0 0 0 0 0 0 0.5 0" in="shadowBlurOuter1" result="shadowMatrixOuter1"/><feMerge><feMergeNode in="shadowMatrixOuter1"/><feMergeNode in="SourceGraphic"/></feMerge></filter></defs><g fill="none" fill-rule="evenodd"><path fill="#D06868" d="M405 690l-27 30.3v97l27-30z"/><g transform="translate(268 690)"><use fill="url(#a)" xlink:href="#b"/><use fill="url(#c)" xlink:href="#b"/></g><path fill="#A5597E" d="M378 720l-110 .1v97.3l110-.1z"/><path d="M414.92 332.439c-.01-5.211-4.074-27.09 17.391-27.662 17.155-.458 52.936 5.628 83.625-2.287 32.632-8.417 66.117-39.767 70.148-36.13 4.032 3.64-35.194 51.868-84.854 65.35-29.055 7.886-67.942 4.697-86.31.729-7.159-1.547 3.585 4.682-22.362.053" fill="#C1BBA7"/><g><path d="M155.715 788.601s20.002 2.987 35.002 2.978c15-.01 25.997-5.017 29.996-7.02 3.998-2.002 5.989-16.003-4.015-22.997-6.557-4.584-1.829-47.846-12.041-63.992-12.012-18.993 8.952-76.006 8.952-76.006l-68.975 40.044s15.05 78.99 16.055 85.99c1.004 7-8.976 38.005-4.974 41.003" fill="#4B2357"/><path d="M326.693 526.002s-6.199 28.903 6.236 61.02c12.434 32.114 40.688 42.442 41.464 57.555.345 6.723-3.212 13.977-5.356 25.258-2.674 14.078 6.706 27.804.722 39.39-5.23 10.13-73.926 7.117-65.569-9.259 8.358-16.375 10.69-39.167 11.013-43.154.326-3.987-42.195-48.586-38.924-76.412 3.27-27.827-15.144-35.424-15.144-35.424l65.559-18.974z" fill="#4B2A5C"/><mask id="f" fill="#fff"><use xlink:href="#d"/></mask><use fill="url(#e)" xlink:href="#d"/><g mask="url(#f)"><g transform="translate(0 360.54)"><mask id="h" fill="#fff"><use xlink:href="#g"/></mask><path d="M6.922 224.482s9-95 54-101c44.956-5.994 52.144-5.696 71.682 11.4 24 21 14.878 30.58 20.167 30.58 5.288 0 32.277-17.38 27.2-49.38-4.911-30.945 28.572-63.435 99.762-60.517 71.19 2.917-81.81-21.083-81.81-21.083l-147 58s-41 54-42 95l-2 37z" fill="#4F6486" mask="url(#h)"/><path d="M253.069 296.499s-72.421-.45-71.941-9.87c.48-9.42 3.874-22.807.949-35.694-.587-2.585 32.906 5.056 52.486-10.941 38.863-31.753 2.877-60.485 2.877-60.485s44.502 23.9 47.656 35.665c5.666 21.135-32.028 81.325-32.028 81.325" fill="#4C3D6A" mask="url(#h)"/><path d="M6.14 309.657s1.425-54.53 1.948-81.001c.969-49.001 8.449-81.34 25.932-107.017 14.986-22.01 73.158-2.926 94.98-32.061 44.962-60.028 114.975-38.073 114.975-38.073l128.018 27.919s-30.97 56.364-47.07 49.058c-11.003-4.993-36-18-36-18s6.356 12.978 20.102 18.982c32.009 13.98 43.017 25.972 50.03 45.968 2.93 8.359 14.539 23.752 22.693 27.214 8.03 3.41 14.732 7.705 20.2 12.378 1.137.971-3.046 5.966-2.015 6.965.924.896 8.945-3.668 9.786-2.757.918.996-5.137 8.418-4.317 9.424.817 1.001 8.672-3.647 9.393-2.643 1.024 1.424-7.782 6.535-6.947 7.943.596 1.006 8.844-.987 9.346 0 2.1 4.127 3.381 8.047 3.905 11.436 2.008 12.999 9.014 21.994-9.962 59.007-13.9 27.108 58.974-40.038 58.974-40.038L292.899-68.526l-318.9 159.204 24.142 219.984 7.999-1.005z" fill="#4F728F" mask="url(#h)"/><path d="M394.037 148.409s-34.56-92.478-34.065-101.978c.494-9.501-93.994 10.06-93.994 10.06l60.013 19.961c36.008 11.978-14.971 45.01-14.971 45.01l66.019 29.958 16.998-3.011z" fill="#4C416D" mask="url(#h)"/><path d="M76.226 445.612S19.597 243.148 20.091 233.648c.494-9.5-2.985-76.603 7.967-52.005 4.005 8.997 25.077 120.984 69.08 125.956 25.836 2.919 9.42 69.892 13.054 83.992 9.022 34.994-11.956 70.007-11.956 70.007l-22.01-15.986z" fill="#4C3D6A" mask="url(#h)"/><path d="M6.922 165.462c6.11-35.98 49.064-90.664 91.484-114.73 42.42-24.065 60.918-34.717 112.989-34.717 52.07 0-39.655-31.774-39.655-31.774L13.031 50.733s-28.816 5.89-29.816 46.89l23.707 67.84z" fill="#5191A6" mask="url(#h)"/></g></g><g filter="url(#i)" mask="url(#f)"><g transform="translate(194 .54)"><mask id="l" fill="#fff"><use xlink:href="#j"/></mask><path d="M204.283 108.907c21.926 18.979 53.009 14.966 75.028 44.952 21.922 29.854-8.408 71.83-15.072 75.01-20.994 10.013-19.991 14.013-36.99 16.023-5.66.67-14.412.565-24.491.461-20.192-.21-45.714-.419-62.385 5.594-24.994 9.017-18.108 18.012-42.099 33.027-23.99 15.015-63.978 35.041-80.966 54.052C.32 357.037-2.663 384.039 4.345 395.034c7.006 10.996 28.014 22.982 85.015 23.946 57 .963 71.019 28.954 93.017 27.941 10.886-.502 7.563-12.504 1.304-28.983l1.801 2.981s19.388-11.806 25.983-25.017c6.992-14.005 24.971-46.016 39.968-51.026 17.308-5.781 47.986-22.03 44.982-28.028-4.216-8.418-31.006-8.98-31.006-8.98s34.239-12.873 35.99-16.024c13.939-25.084 33.574-71.901 21.92-125.013-14.041-63.991-75.04-62.953-93.046-72.941-37.122-20.592-26.169-75.983-26.169-75.983s1.991-14.001-8.01-15.996c-3.501-.698-6.145-1.519-8.059-1.519-3.553 0-4.59 2.828-3.933 14.528 1.011 17.999-9.836 68.006 20.181 93.987z" fill="url(#k)" mask="url(#l)"/><path d="M185.481 420.918s19.39-11.806 25.984-25.016c6.991-14.005 24.971-46.016 39.968-51.026 17.308-5.78 47.986-22.03 44.982-28.028-4.216-8.418-31.006-8.98-31.006-8.98s34.24-12.873 35.99-16.024c13.94-25.084 33.052-47.418 14.437-98.509-12.02-32.992-77.048-74.95-95.054-84.939-37.12-20.592-29.05-78.982-29.05-78.982s-.01-17-10.012-18.994c-10.002-1.993-6.002-1.996-4.99 16.004 1.011 18-2.464 56.501 27.552 82.482 21.927 18.98 54.52 29.466 76.538 59.451 21.923 29.855 54.04 61.966 24.061 95.985-15.378 17.451-70.969 49.045-88.964 56.057-15.949 6.214-43.994 10.028-49.994 9.032-26.212-4.352-44.019-29.972-58.014-20.963-23.797 15.32 31.024 36.98 14.036 55.991-16.988 19.01-80.907 16.058-81.982 29.052-.992 12.001 3.013 18.998 60.013 19.962 57.001.964 60.402 34.461 82.401 33.447 22-1.014-14.03-48.99-15.054-85.99-1.024-37-44.028-42.972-44.028-42.972" fill="#4E567C" mask="url(#l)"/><path d="M115.893 283.463c15.987-21.01 21.986-23.015 37.984-26.024 10.797-2.032 41.666-.73 67.338-3.16 1.626-.155 3.517 5.87 5.706 5.87 2.189 0-.292-11.532 2.124-11.986 2.416-.454 7.365 12.67 9.614 11.985 2.25-.684-2.996-12.568 0-13.444 2.996-.875 9.01 11.02 10.737 10.102 1.726-.919-3.392-10.102-1.705-12.404 1.686-2.303 3.15 3.46 3.43 3.307 27.722-15.035 38.746-37.698 39.715-54.358.99-17-19.026-40.988-19.026-40.988L122.76 73.458s3.433-58.498 62.957-67.04c20.998-3.013-2.196 32.95 22.048 75.986 12.534 22.25 43.027 18.179 72.232 37.471 2.024 1.337 5.207-2.262 6.513-1.262 1.307 1-3.259 4.404 1.85 8.537 5.109 4.133 7.306-2.77 9.21-.899 1.905 1.87-5.183 5.481 0 9.91 5.184 4.427 7.865-1.494 9.62.717 1.753 2.212-3.594 4.871-1.295 7.464 7.228 8.15 7.473 11.015 10.926 24.993 10.835 43.856 6.43 34.45 21.033 51.986 27.646 33.2-128.948 81.082-128.948 81.082l184.981-29.118-11.28-39.794-255.049-477.036L-14.03 403.546s26.964-57.018 61.95-80.04c42.265-27.813 51.987-19.033 67.973-40.043z" fill="#5DA7B5" mask="url(#l)"/><path d="M196.985 426.411l-14.418-9.821s-9.561-37.378-14.62-49.16c-6.008-13.997-6.447-20.942-24.015-24.985-52.008-11.967-21.018-26.987-21.018-26.987s34.006 8.979 42.02 32.974c3.37 10.088 6.025 36.996 21.025 36.986 15-.009 19.985-23.012 32.98-31.021 12.995-8.008 21.989-18.014 33.987-20.022 11.999-2.007 43.999-2.027 43.999-2.027l-99.94 94.063z" fill="#4C416D" mask="url(#l)"/><path d="M179.899 292.422c14.995-8.01 17.998-3.011 26.994-9.017 8.997-6.006-33.01-15.979-47.005-7.97-8.002 4.579-11.41 33.408-2.975 38.002 22.007 11.986 10.606-14.402 22.986-21.015z" fill="#4E567C" mask="url(#l)"/></g></g></g><path d="M182.694 644.46c6.653-28.902 9.002-32.93-9.08-54.223-12.055-14.196-18.743-24.763-20.063-31.701-.52 9.507 5.296 21.108 17.449 34.803 18.23 20.542 1.21 56.405 9.202 80.157 5.327 15.834 8.628 27.457 9.903 34.87-1.609-14.063-3.541-26.148-5.796-36.255-1.117-5.006-4.294-16.01-1.615-27.652z" fill="#4F6486"/><path d="M420.92 326.932s26.814-.784 34.999-3.022c10.998-3.007 26.998-4.018 26.993-11.018l-17.253-5.075-27.203 9.506-.975 2.65-16.56 6.959z" fill="#4B2A5C"/><path d="M517.252 250.371c-24.439 19.765-58.796 31.045-73.975 39.047-18.993 10.012-6.984 25.005-4.981 29.003 17.959-5.144 53.987-20.035 76.975-39.049 39.29-32.5 55.944-87.035 50.943-88.033a1.03 1.03 0 00-.194-.018c-5.261.004-23.11 38.299-48.768 59.05" fill="url(#m)"/><path d="M438.295 318.421c-7.387-11.496-5.39-16.497-5.39-16.497s8.004 6.995 22.001 1.986c16.156-5.78 37.54-14.274 61.978-34.039 25.987-21.017 43.964-56.028 43.964-56.028s-6.287 33.03-45.578 65.53c-22.988 19.013-59.016 33.904-76.975 39.048" fill="#D3CBAF"/><g><path d="M363.874 284.175a6.702 6.702 0 016.696-6.71 6.701 6.701 0 016.703 6.7 6.703 6.703 0 01-6.695 6.712 6.703 6.703 0 01-6.704-6.702" fill="#020408"/><path d="M373.891 280.962a2 2 0 11-4 .002 2 2 0 014-.002" fill="#D5B8D8"/></g></g></svg>